<mxfile host="app.diagrams.net" modified="2023-08-20T14:46:54.852Z" agent="Mozilla/5.0 (Windows NT 10.0; Win64; x64) AppleWebKit/537.36 (KHTML, like Gecko) Chrome/115.0.0.0 Safari/537.36 Edg/115.0.1901.203" etag="4iSMOp2GNte8K-eYWpOp" version="21.6.8" type="github">
  <diagram name="第 1 页" id="TjHyPGN3CzpbcQc78Ti-">
    <mxGraphModel dx="1166" dy="775" grid="1" gridSize="10" guides="1" tooltips="1" connect="1" arrows="1" fold="1" page="1" pageScale="1" pageWidth="827" pageHeight="1169" math="0" shadow="0">
      <root>
        <mxCell id="0" />
        <mxCell id="1" parent="0" />
        <mxCell id="1c2kbWQBWxUN6-63R94X-3" value="" style="edgeStyle=orthogonalEdgeStyle;rounded=0;orthogonalLoop=1;jettySize=auto;html=1;" parent="1" source="1c2kbWQBWxUN6-63R94X-1" target="1c2kbWQBWxUN6-63R94X-2" edge="1">
          <mxGeometry relative="1" as="geometry" />
        </mxCell>
        <mxCell id="1c2kbWQBWxUN6-63R94X-1" value="" style="ellipse;whiteSpace=wrap;html=1;rounded=0;shadow=0;comic=0;labelBackgroundColor=none;strokeWidth=1;fillColor=#000000;fontFamily=Verdana;fontSize=12;align=center;" parent="1" vertex="1">
          <mxGeometry x="265" y="200" width="30" height="30" as="geometry" />
        </mxCell>
        <mxCell id="1c2kbWQBWxUN6-63R94X-5" style="edgeStyle=orthogonalEdgeStyle;rounded=0;orthogonalLoop=1;jettySize=auto;html=1;entryX=0.5;entryY=0;entryDx=0;entryDy=0;" parent="1" source="1c2kbWQBWxUN6-63R94X-2" target="1c2kbWQBWxUN6-63R94X-4" edge="1">
          <mxGeometry relative="1" as="geometry" />
        </mxCell>
        <mxCell id="1c2kbWQBWxUN6-63R94X-2" value="还款申请" style="rounded=1;whiteSpace=wrap;html=1;" parent="1" vertex="1">
          <mxGeometry x="230" y="260" width="100" height="30" as="geometry" />
        </mxCell>
        <mxCell id="1c2kbWQBWxUN6-63R94X-10" style="rounded=0;orthogonalLoop=1;jettySize=auto;html=1;" parent="1" source="1c2kbWQBWxUN6-63R94X-4" target="1c2kbWQBWxUN6-63R94X-6" edge="1">
          <mxGeometry relative="1" as="geometry" />
        </mxCell>
        <mxCell id="1c2kbWQBWxUN6-63R94X-11" value="" style="edgeStyle=orthogonalEdgeStyle;rounded=0;orthogonalLoop=1;jettySize=auto;html=1;" parent="1" source="1c2kbWQBWxUN6-63R94X-4" target="1c2kbWQBWxUN6-63R94X-8" edge="1">
          <mxGeometry relative="1" as="geometry" />
        </mxCell>
        <mxCell id="1c2kbWQBWxUN6-63R94X-12" style="rounded=0;orthogonalLoop=1;jettySize=auto;html=1;entryX=0.5;entryY=0;entryDx=0;entryDy=0;" parent="1" source="1c2kbWQBWxUN6-63R94X-4" target="1c2kbWQBWxUN6-63R94X-9" edge="1">
          <mxGeometry relative="1" as="geometry" />
        </mxCell>
        <mxCell id="1c2kbWQBWxUN6-63R94X-4" value="" style="whiteSpace=wrap;html=1;rounded=0;shadow=0;comic=0;labelBackgroundColor=none;strokeWidth=1;fillColor=#000000;fontFamily=Verdana;fontSize=12;align=center;rotation=0;" parent="1" vertex="1">
          <mxGeometry x="206.5" y="320" width="147" height="10" as="geometry" />
        </mxCell>
        <mxCell id="1c2kbWQBWxUN6-63R94X-14" style="rounded=0;orthogonalLoop=1;jettySize=auto;html=1;entryX=0.25;entryY=0;entryDx=0;entryDy=0;" parent="1" source="1c2kbWQBWxUN6-63R94X-6" target="1c2kbWQBWxUN6-63R94X-13" edge="1">
          <mxGeometry relative="1" as="geometry" />
        </mxCell>
        <mxCell id="1c2kbWQBWxUN6-63R94X-6" value="主动还款" style="rounded=1;whiteSpace=wrap;html=1;" parent="1" vertex="1">
          <mxGeometry x="110" y="360" width="100" height="30" as="geometry" />
        </mxCell>
        <mxCell id="1c2kbWQBWxUN6-63R94X-17" style="edgeStyle=orthogonalEdgeStyle;rounded=0;orthogonalLoop=1;jettySize=auto;html=1;entryX=0.5;entryY=0;entryDx=0;entryDy=0;" parent="1" source="1c2kbWQBWxUN6-63R94X-8" target="1c2kbWQBWxUN6-63R94X-13" edge="1">
          <mxGeometry relative="1" as="geometry" />
        </mxCell>
        <mxCell id="1c2kbWQBWxUN6-63R94X-8" value="系统自扣还款" style="rounded=1;whiteSpace=wrap;html=1;" parent="1" vertex="1">
          <mxGeometry x="230" y="360" width="100" height="30" as="geometry" />
        </mxCell>
        <mxCell id="1c2kbWQBWxUN6-63R94X-19" style="rounded=0;orthogonalLoop=1;jettySize=auto;html=1;entryX=0.75;entryY=0;entryDx=0;entryDy=0;" parent="1" source="1c2kbWQBWxUN6-63R94X-9" target="1c2kbWQBWxUN6-63R94X-13" edge="1">
          <mxGeometry relative="1" as="geometry" />
        </mxCell>
        <mxCell id="1c2kbWQBWxUN6-63R94X-9" value="提前下账" style="rounded=1;whiteSpace=wrap;html=1;" parent="1" vertex="1">
          <mxGeometry x="353.5" y="360" width="100" height="30" as="geometry" />
        </mxCell>
        <mxCell id="1c2kbWQBWxUN6-63R94X-21" value="" style="edgeStyle=orthogonalEdgeStyle;rounded=0;orthogonalLoop=1;jettySize=auto;html=1;" parent="1" source="1c2kbWQBWxUN6-63R94X-13" target="1c2kbWQBWxUN6-63R94X-20" edge="1">
          <mxGeometry relative="1" as="geometry" />
        </mxCell>
        <mxCell id="1c2kbWQBWxUN6-63R94X-13" value="" style="whiteSpace=wrap;html=1;rounded=0;shadow=0;comic=0;labelBackgroundColor=none;strokeWidth=1;fillColor=#000000;fontFamily=Verdana;fontSize=12;align=center;rotation=0;" parent="1" vertex="1">
          <mxGeometry x="206.5" y="420" width="147" height="10" as="geometry" />
        </mxCell>
        <mxCell id="1c2kbWQBWxUN6-63R94X-23" value="" style="edgeStyle=orthogonalEdgeStyle;rounded=0;orthogonalLoop=1;jettySize=auto;html=1;" parent="1" source="1c2kbWQBWxUN6-63R94X-20" target="1c2kbWQBWxUN6-63R94X-22" edge="1">
          <mxGeometry relative="1" as="geometry" />
        </mxCell>
        <mxCell id="1c2kbWQBWxUN6-63R94X-20" value="还款试算" style="rounded=1;whiteSpace=wrap;html=1;" parent="1" vertex="1">
          <mxGeometry x="230" y="460" width="100" height="30" as="geometry" />
        </mxCell>
        <mxCell id="1c2kbWQBWxUN6-63R94X-25" value="" style="edgeStyle=orthogonalEdgeStyle;rounded=0;orthogonalLoop=1;jettySize=auto;html=1;" parent="1" source="1c2kbWQBWxUN6-63R94X-22" target="1c2kbWQBWxUN6-63R94X-24" edge="1">
          <mxGeometry relative="1" as="geometry" />
        </mxCell>
        <mxCell id="1c2kbWQBWxUN6-63R94X-22" value="提交还款/系统扣款" style="rounded=1;whiteSpace=wrap;html=1;" parent="1" vertex="1">
          <mxGeometry x="230" y="520" width="100" height="30" as="geometry" />
        </mxCell>
        <mxCell id="1c2kbWQBWxUN6-63R94X-26" style="edgeStyle=orthogonalEdgeStyle;rounded=0;orthogonalLoop=1;jettySize=auto;html=1;entryX=0;entryY=0.5;entryDx=0;entryDy=0;exitX=0;exitY=0.5;exitDx=0;exitDy=0;" parent="1" source="1c2kbWQBWxUN6-63R94X-24" target="1c2kbWQBWxUN6-63R94X-22" edge="1">
          <mxGeometry relative="1" as="geometry" />
        </mxCell>
        <mxCell id="G_nQSdE1PUKBhwWcNxeN-1" value="" style="edgeStyle=orthogonalEdgeStyle;rounded=0;orthogonalLoop=1;jettySize=auto;html=1;" edge="1" parent="1" source="1c2kbWQBWxUN6-63R94X-24" target="1c2kbWQBWxUN6-63R94X-28">
          <mxGeometry relative="1" as="geometry" />
        </mxCell>
        <mxCell id="1c2kbWQBWxUN6-63R94X-24" value="" style="rhombus;whiteSpace=wrap;html=1;" parent="1" vertex="1">
          <mxGeometry x="258" y="584.5" width="44" height="40" as="geometry" />
        </mxCell>
        <mxCell id="1c2kbWQBWxUN6-63R94X-27" value="扣款/还款失败" style="text;html=1;align=center;verticalAlign=middle;resizable=0;points=[];autosize=1;strokeColor=none;fillColor=none;" parent="1" vertex="1">
          <mxGeometry x="120" y="560" width="100" height="30" as="geometry" />
        </mxCell>
        <mxCell id="1c2kbWQBWxUN6-63R94X-31" value="" style="edgeStyle=orthogonalEdgeStyle;rounded=0;orthogonalLoop=1;jettySize=auto;html=1;" parent="1" source="1c2kbWQBWxUN6-63R94X-28" target="1c2kbWQBWxUN6-63R94X-30" edge="1">
          <mxGeometry relative="1" as="geometry" />
        </mxCell>
        <mxCell id="1c2kbWQBWxUN6-63R94X-28" value="更新还款计划" style="rounded=1;whiteSpace=wrap;html=1;" parent="1" vertex="1">
          <mxGeometry x="230" y="660" width="100" height="30" as="geometry" />
        </mxCell>
        <mxCell id="1c2kbWQBWxUN6-63R94X-33" value="" style="edgeStyle=orthogonalEdgeStyle;rounded=0;orthogonalLoop=1;jettySize=auto;html=1;entryX=0;entryY=0.5;entryDx=0;entryDy=0;" parent="1" source="1c2kbWQBWxUN6-63R94X-30" target="1c2kbWQBWxUN6-63R94X-34" edge="1">
          <mxGeometry relative="1" as="geometry">
            <mxPoint x="470" y="745" as="targetPoint" />
          </mxGeometry>
        </mxCell>
        <mxCell id="1c2kbWQBWxUN6-63R94X-30" value="更新授信可用额度" style="rounded=1;whiteSpace=wrap;html=1;" parent="1" vertex="1">
          <mxGeometry x="364" y="660" width="100" height="30" as="geometry" />
        </mxCell>
        <mxCell id="1c2kbWQBWxUN6-63R94X-37" value="" style="edgeStyle=orthogonalEdgeStyle;rounded=0;orthogonalLoop=1;jettySize=auto;html=1;" parent="1" source="1c2kbWQBWxUN6-63R94X-34" target="1c2kbWQBWxUN6-63R94X-36" edge="1">
          <mxGeometry relative="1" as="geometry" />
        </mxCell>
        <mxCell id="1c2kbWQBWxUN6-63R94X-34" value="更新借据详情" style="rounded=1;whiteSpace=wrap;html=1;" parent="1" vertex="1">
          <mxGeometry x="502" y="660" width="100" height="30" as="geometry" />
        </mxCell>
        <mxCell id="1c2kbWQBWxUN6-63R94X-35" value="扣款/还款成功" style="text;html=1;align=center;verticalAlign=middle;resizable=0;points=[];autosize=1;strokeColor=none;fillColor=none;" parent="1" vertex="1">
          <mxGeometry x="158" y="619.5" width="100" height="30" as="geometry" />
        </mxCell>
        <mxCell id="1c2kbWQBWxUN6-63R94X-39" value="" style="edgeStyle=orthogonalEdgeStyle;rounded=0;orthogonalLoop=1;jettySize=auto;html=1;" parent="1" source="1c2kbWQBWxUN6-63R94X-36" target="1c2kbWQBWxUN6-63R94X-38" edge="1">
          <mxGeometry relative="1" as="geometry">
            <Array as="points">
              <mxPoint x="702" y="730" />
            </Array>
          </mxGeometry>
        </mxCell>
        <mxCell id="1c2kbWQBWxUN6-63R94X-44" style="edgeStyle=orthogonalEdgeStyle;rounded=0;orthogonalLoop=1;jettySize=auto;html=1;entryX=1;entryY=0.5;entryDx=0;entryDy=0;exitX=1;exitY=0.5;exitDx=0;exitDy=0;" parent="1" source="1c2kbWQBWxUN6-63R94X-36" target="1c2kbWQBWxUN6-63R94X-41" edge="1">
          <mxGeometry relative="1" as="geometry" />
        </mxCell>
        <mxCell id="1c2kbWQBWxUN6-63R94X-36" value="" style="rhombus;whiteSpace=wrap;html=1;" parent="1" vertex="1">
          <mxGeometry x="680" y="655" width="44" height="40" as="geometry" />
        </mxCell>
        <mxCell id="1c2kbWQBWxUN6-63R94X-43" value="" style="edgeStyle=orthogonalEdgeStyle;rounded=0;orthogonalLoop=1;jettySize=auto;html=1;" parent="1" source="1c2kbWQBWxUN6-63R94X-38" target="1c2kbWQBWxUN6-63R94X-41" edge="1">
          <mxGeometry relative="1" as="geometry" />
        </mxCell>
        <mxCell id="1c2kbWQBWxUN6-63R94X-38" value="结清上报" style="rounded=1;whiteSpace=wrap;html=1;" parent="1" vertex="1">
          <mxGeometry x="364" y="719.5" width="100" height="30" as="geometry" />
        </mxCell>
        <mxCell id="1c2kbWQBWxUN6-63R94X-40" value="已结清" style="text;html=1;align=center;verticalAlign=middle;resizable=0;points=[];autosize=1;strokeColor=none;fillColor=none;" parent="1" vertex="1">
          <mxGeometry x="522" y="730" width="60" height="30" as="geometry" />
        </mxCell>
        <mxCell id="1c2kbWQBWxUN6-63R94X-47" value="" style="edgeStyle=orthogonalEdgeStyle;rounded=0;orthogonalLoop=1;jettySize=auto;html=1;" parent="1" source="1c2kbWQBWxUN6-63R94X-41" target="1c2kbWQBWxUN6-63R94X-46" edge="1">
          <mxGeometry relative="1" as="geometry" />
        </mxCell>
        <mxCell id="1c2kbWQBWxUN6-63R94X-41" value="" style="whiteSpace=wrap;html=1;rounded=0;shadow=0;comic=0;labelBackgroundColor=none;strokeWidth=1;fillColor=#000000;fontFamily=Verdana;fontSize=12;align=center;rotation=0;" parent="1" vertex="1">
          <mxGeometry x="340.5" y="789.5" width="147" height="10" as="geometry" />
        </mxCell>
        <mxCell id="1c2kbWQBWxUN6-63R94X-45" value="未结清" style="text;html=1;align=center;verticalAlign=middle;resizable=0;points=[];autosize=1;strokeColor=none;fillColor=none;" parent="1" vertex="1">
          <mxGeometry x="522" y="789.5" width="60" height="30" as="geometry" />
        </mxCell>
        <mxCell id="1c2kbWQBWxUN6-63R94X-49" value="" style="edgeStyle=orthogonalEdgeStyle;rounded=0;orthogonalLoop=1;jettySize=auto;html=1;" parent="1" source="1c2kbWQBWxUN6-63R94X-46" target="1c2kbWQBWxUN6-63R94X-48" edge="1">
          <mxGeometry relative="1" as="geometry" />
        </mxCell>
        <mxCell id="1c2kbWQBWxUN6-63R94X-46" value="还款成功通知" style="rounded=1;whiteSpace=wrap;html=1;" parent="1" vertex="1">
          <mxGeometry x="364" y="840" width="100" height="30" as="geometry" />
        </mxCell>
        <mxCell id="1c2kbWQBWxUN6-63R94X-48" value="" style="shape=mxgraph.bpmn.shape;html=1;verticalLabelPosition=bottom;labelBackgroundColor=#ffffff;verticalAlign=top;perimeter=ellipsePerimeter;outline=end;symbol=terminate;rounded=0;shadow=0;comic=0;strokeWidth=1;fontFamily=Verdana;fontSize=12;align=center;" parent="1" vertex="1">
          <mxGeometry x="399" y="910" width="30" height="30" as="geometry" />
        </mxCell>
      </root>
    </mxGraphModel>
  </diagram>
</mxfile>
